<svg width="32" height="32" viewBox="0 0 32 32" fill="none" xmlns="http://www.w3.org/2000/svg">
<g clip-path="url(#clip0_1_19)">
<path d="M22.6665 2.66669H9.33317C5.65127 2.66669 2.6665 5.65146 2.6665 9.33335V22.6667C2.6665 26.3486 5.65127 29.3334 9.33317 29.3334H22.6665C26.3484 29.3334 29.3332 26.3486 29.3332 22.6667V9.33335C29.3332 5.65146 26.3484 2.66669 22.6665 2.66669Z" stroke="white" stroke-width="2" stroke-linecap="round" stroke-linejoin="round"/>
<path d="M21.3331 15.16C21.4977 16.2696 21.3081 17.4029 20.7915 18.3987C20.2748 19.3944 19.4573 20.2019 18.4553 20.7062C17.4532 21.2106 16.3177 21.3861 15.2102 21.2079C14.1026 21.0297 13.0795 20.5068 12.2862 19.7135C11.493 18.9203 10.9701 17.8971 10.7919 16.7896C10.6136 15.682 10.7892 14.5465 11.2935 13.5445C11.7979 12.5424 12.6054 11.725 13.6011 11.2083C14.5968 10.6916 15.7301 10.5021 16.8398 10.6666C17.9717 10.8345 19.0196 11.3619 19.8287 12.171C20.6378 12.9802 21.1653 14.0281 21.3331 15.16Z" stroke="white" stroke-width="2" stroke-linecap="round" stroke-linejoin="round"/>
</g>
<defs>
<clipPath id="clip0_1_19">
<rect width="32" height="32" fill="white"/>
</clipPath>
</defs>
</svg>
